<svg xmlns="http://www.w3.org/2000/svg" width="383" height="103" viewBox="0 0 383 103">
  <defs>
    <style>
      .cls-1 {
        fill: #3a405b;
        fill-rule: evenodd;
      }
    </style>
  </defs>
  <path id="Portland" class="cls-1" d="M3.164,102.032a7.245,7.245,0,0,0,3.7.994q3.866,0,5.634-1.71a12.6,12.6,0,0,0,2.872-4.584,57.932,57.932,0,0,0,2.154-6.35q1.049-3.7,2.044-7.951t1.878-8.668q0.883-4.416,1.767-8.613a50.541,50.541,0,0,0,19.222-4.529,52.4,52.4,0,0,0,14.25-9.661,45,45,0,0,0,9.169-12.422,38.7,38.7,0,0,0,3.977-12.922,31.567,31.567,0,0,0-.331-7.727,24.049,24.049,0,0,0-2.927-8.394A19.588,19.588,0,0,0,60.055,2.76Q55.8,0,48.843,0a56.678,56.678,0,0,0-12.7,1.324A61.348,61.348,0,0,0,26.086,4.47a48.7,48.7,0,0,0-7.235,3.7q-2.928,1.881-4.364,2.873-2.763,1.877-2.762,3.643a9.114,9.114,0,0,0,.663,3.422,8.7,8.7,0,0,0,.773,1.436A9.2,9.2,0,0,0,15.371,22.2q1.877-1.988,3.866-3.811c1.326-1.216,2.577-2.3,3.756-3.259a38.548,38.548,0,0,1,4.087-2.981q-0.774,2.763-2.1,7.731T22,30.973Q20.342,37.1,18.574,43.892t-3.48,13.2q-1.714,6.4-3.148,12.037T9.626,78.4a88.626,88.626,0,0,1-3.2,10.821A40.83,40.83,0,0,1,3.606,95.3,11.744,11.744,0,0,1,1.4,98.168c-0.625.513-1.086,0.883-1.381,1.1A11.556,11.556,0,0,0,3.164,102.032ZM28.075,40.416q0.994-4.531,2.706-11.707t4.364-17.89a4.14,4.14,0,0,0-.994-1.876,2.177,2.177,0,0,0-.773-0.552A38.8,38.8,0,0,1,38.68,6.4a19.339,19.339,0,0,1,5.413-.775,18.421,18.421,0,0,1,5.744.941,12.452,12.452,0,0,1,5.081,3.2,14.658,14.658,0,0,1,3.37,5.962,23.409,23.409,0,0,1,.608,9.221A36.5,36.5,0,0,1,56.41,35.391,35.887,35.887,0,0,1,51.6,43.782,39.51,39.51,0,0,1,45.253,50.3a47.619,47.619,0,0,1-7.126,4.8,41.581,41.581,0,0,1-7.291,3.146,42.758,42.758,0,0,1-6.628,1.6q0.663-3.535,1.16-6.35T26.2,48.916q0.663-3.2,1.878-8.5h0Zm79.759,22.195q3.645-2.21,6.739-4.529t5.357-4.307a33.086,33.086,0,0,0,2.817-2.651,5.556,5.556,0,0,0,1.216-2.208,2.111,2.111,0,0,0-.111-1.546,1.007,1.007,0,0,0-1.105-.441,3.964,3.964,0,0,0-1.878,1.1,33.515,33.515,0,0,1-3.535,2.983q-2.211,1.656-4.8,3.256t-5.358,3.04a55.342,55.342,0,0,1-5.3,2.428q0.108-.883.221-2.154c0.072-.847.11-1.563,0.11-2.154a16.593,16.593,0,0,0-4.916-12.368,15.3,15.3,0,0,0-4.2-2.982,11.077,11.077,0,0,0-3.59-1.1c-0.221-.072-0.425-0.147-0.608-0.22a1.606,1.606,0,0,0-.608-0.111,17.636,17.636,0,0,0-4.087.5,17.179,17.179,0,0,0-3.922,1.435,12.083,12.083,0,0,0-3.2,2.374,9.094,9.094,0,0,0-2.044,3.312,26.046,26.046,0,0,0-3.259,4.858,36.23,36.23,0,0,0-2.265,5.3,41.535,41.535,0,0,0-1.381,5.191,24.314,24.314,0,0,0-.5,4.635q0,2.983.276,6.406a19.275,19.275,0,0,0,1.547,6.3,11.887,11.887,0,0,0,3.866,4.8,11.708,11.708,0,0,0,7.125,1.933,16.946,16.946,0,0,0,7.125-1.49,19.537,19.537,0,0,0,5.855-4.142,25.867,25.867,0,0,0,4.474-6.293,38.358,38.358,0,0,0,2.982-7.841A34.579,34.579,0,0,0,107.833,62.611ZM85.795,45.882a7.712,7.712,0,0,1,4.032-1.159,2.824,2.824,0,0,1,2.265,1.159,9.495,9.495,0,0,1,1.547,2.98,18.692,18.692,0,0,1,.829,4.03,21.145,21.145,0,0,1,0,4.307,9.013,9.013,0,0,1-.276,2.043c-0.185.773-.387,1.64-0.608,2.595a11.1,11.1,0,0,1-1.1.167,10.722,10.722,0,0,1-1.1.056,11.341,11.341,0,0,1-5.358-1.049,6.919,6.919,0,0,1-2.817-2.6,8.957,8.957,0,0,1-1.1-3.478,32.347,32.347,0,0,1-.221-3.7,6.584,6.584,0,0,1,.331-2.1A13.429,13.429,0,0,1,85.795,45.882Zm-10.218,18.5q0.44-2.206,1.1-4.527A16.368,16.368,0,0,0,81.376,66.2a11.069,11.069,0,0,0,7.236,2.484c0.588,0,1.122-.017,1.6-0.056s0.975-.088,1.491-0.164a30.689,30.689,0,0,1-1.823,4.031,18.275,18.275,0,0,1-2.375,3.424,11.685,11.685,0,0,1-2.983,2.43,7.272,7.272,0,0,1-3.645.937,4.28,4.28,0,0,1-2.872-.937,6.686,6.686,0,0,1-1.768-2.43,11.642,11.642,0,0,1-.884-3.424,34.2,34.2,0,0,1-.221-3.918A21.385,21.385,0,0,1,75.576,64.377Zm34.632,15.846q1.383-2.263,3.37-5.522t4.253-7.011q2.262-3.755,4.308-7.179t3.59-5.962q1.545-2.537,1.989-3.312a11.911,11.911,0,0,1,1.877.661,5.944,5.944,0,0,0,2.431.444c0.662,0,1.16-.019,1.491-0.054a7.632,7.632,0,0,1,.773-0.056,2.731,2.731,0,0,0,.553-0.056,5.6,5.6,0,0,1,.939-0.055,1.531,1.531,0,0,1,1.436.772,3.521,3.521,0,0,1,.442,1.767,8.772,8.772,0,0,1-1.16,3.811q-1.159,2.265-3.038,5.466-0.774,1.546-1.713,3.148t-1.767,3.2q-0.828,1.6-1.436,3.092a9.556,9.556,0,0,0-.718,2.815,11.379,11.379,0,0,0,.386,3.59,10.374,10.374,0,0,0,1.658,3.534,9.888,9.888,0,0,0,3.037,2.706,9.3,9.3,0,0,0,4.751,1.1,12.141,12.141,0,0,0,5.8-1.656,35.767,35.767,0,0,0,6.076-4.252,56.564,56.564,0,0,0,5.8-5.743q2.76-3.145,5.026-6.128t3.867-5.41q1.6-2.428,2.264-3.533a4.236,4.236,0,0,0,.829-2.649,1.666,1.666,0,0,0-.829-1.326,1.874,1.874,0,0,0-1.547,0,2.858,2.858,0,0,0-1.436,1.213q-0.661.885-2.043,2.871T158.1,64.985q-1.989,2.487-4.309,5.08a64.086,64.086,0,0,1-4.7,4.749,31.225,31.225,0,0,1-4.64,3.533,8.124,8.124,0,0,1-4.142,1.379q-2.542,0-3.093-.883a6.09,6.09,0,0,1-.774-2.318,8.562,8.562,0,0,1,1.326-4.97q1.546-2.758,3.093-4.968,2.541-3.535,4.309-6.516a9.064,9.064,0,0,0,1.436-5.743,19.771,19.771,0,0,0-.5-2.927,11.786,11.786,0,0,0-1.16-2.979,7.557,7.557,0,0,0-1.989-2.319,4.9,4.9,0,0,0-3.093-.938,8.39,8.39,0,0,0-2.265.221,9.588,9.588,0,0,1-2.485.22,4.179,4.179,0,0,1-1.768-.277,7.747,7.747,0,0,1-.883-0.495,10.617,10.617,0,0,0,1.657-3.976,10.862,10.862,0,0,0,.221-3.645,9.406,9.406,0,0,0-1.492-4.087q-1.27-1.986-4.363-1.989a5.306,5.306,0,0,0-3.425,1.548,18.491,18.491,0,0,0-3.2,3.7,22.365,22.365,0,0,0-2.32,4.472,7.7,7.7,0,0,0-.663,3.753,4.414,4.414,0,0,0,.663,2.154q0.439,0.5,1.657,1.6-0.663,1.215-2.1,3.922t-3.148,6.127q-1.715,3.425-3.591,7.232t-3.479,7.069q-1.6,3.256-2.762,5.576t-1.492,2.981a3.3,3.3,0,0,0-.441,2.21,1.546,1.546,0,0,0,.939,1.158,2.205,2.205,0,0,0,1.657-.11,3.9,3.9,0,0,0,1.712-1.6Q108.828,82.489,110.208,80.223ZM197.092,58.58q-1.658,2.151-3.867,4.8t-4.805,5.41q-2.6,2.762-5.137,5.081a29.113,29.113,0,0,1-4.915,3.7,6.594,6.594,0,0,1-4.033,1.158,5.75,5.75,0,0,1-3.535-1.324,8.366,8.366,0,0,1-2.043-3.589,16.744,16.744,0,0,1-.166-7.232q2.871-6.626,5.192-12.479t3.977-10.382q1.877-5.186,3.314-9.606a31.6,31.6,0,0,0,1.049-3.591q0.387-1.71.829-3.476,0.883,0,1.712-.056c0.553-.037,1.05-0.054,1.491-0.054q3.535,0,6.187.22t4.584,0.441a29.39,29.39,0,0,1,3.314.552,18.049,18.049,0,0,0,2.486.443,2.39,2.39,0,0,0,1.988-.443,3.787,3.787,0,0,0,1.271-1.6,4.1,4.1,0,0,0,.331-1.822,1.1,1.1,0,0,0-.828-1.1q-0.774-.221-2.32-0.83a31.672,31.672,0,0,0-4.088-1.212q-2.541-.61-6.131-1.105a60.334,60.334,0,0,0-8.23-.5,59.518,59.518,0,0,0,1.215-9.274q0.109-3.644-.441-4.527a2.68,2.68,0,0,0-1.768-.828,9.748,9.748,0,0,0-2.541,0,12.916,12.916,0,0,0-2.485.551,2.684,2.684,0,0,0-1.491.938,23.916,23.916,0,0,0-2.486,5.468q-1.383,3.921-2.817,9.221-1.88.334-3.811,0.551t-4.032.332a49.7,49.7,0,0,1-5.3-.054q-2.429-.166-4.529-0.387a2.633,2.633,0,0,0-1.491.607,5.711,5.711,0,0,0-1.381,1.436,3.939,3.939,0,0,0-.663,1.656,1.185,1.185,0,0,0,.773,1.271,28.455,28.455,0,0,0,11.379,2.428,29.528,29.528,0,0,0,3.424-.219q1.876-.219,3.756-0.443-1.548,6.408-2.927,13.306t-2.486,12.92q-1.105,6.022-1.767,10.6t-0.774,6.35a14.189,14.189,0,0,0,.332,4.583,13.585,13.585,0,0,0,1.933,4.582,11.417,11.417,0,0,0,3.811,3.535,11.8,11.8,0,0,0,6.076,1.436q2.54,0,6.3-2.761a56.889,56.889,0,0,0,7.732-7.013,102.052,102.052,0,0,0,7.568-9.11,71.642,71.642,0,0,0,5.8-9.055,4.4,4.4,0,0,0,.608-2.1,1.441,1.441,0,0,0-.5-1.106,1.35,1.35,0,0,0-1.16-.164,1.854,1.854,0,0,0-1.16.828Q198.749,56.428,197.092,58.58Zm-4.971,25.065a7.4,7.4,0,0,0,1.326,1.161,7.036,7.036,0,0,0,1.546.662,13.776,13.776,0,0,0,1.657.11,5.357,5.357,0,0,0,1.436-.22,3.07,3.07,0,0,0,1.326-.773q5.079-19.988,8.451-33.129T213.22,30.7q2.321-8.944,3.646-13.692,0.55-2.426.994-4.528,0.22-1.764.276-3.423a2.705,2.705,0,0,0-.607-2.21,1.256,1.256,0,0,0-1-.716,7.932,7.932,0,0,0-1.656-.166,12.718,12.718,0,0,0-2.21.22c-0.811.149-1.621,0.331-2.43,0.554q-0.995.221-2.044,0.551a8.478,8.478,0,0,0-1.933.883,16.4,16.4,0,0,1,.331,3.425,29.394,29.394,0,0,1-.221,3.645q-0.222,1.988-.552,4.084-0.663,2.983-2.43,10.713-1.55,6.516-4.474,18.882t-7.788,32.8A4.552,4.552,0,0,0,192.121,83.645ZM275.8,58.414a2.629,2.629,0,0,0-.166-1.987,1.193,1.193,0,0,0-1.325-.5,3.268,3.268,0,0,0-1.768,1.159q-0.663.883-2.154,2.76t-3.369,4.307q-1.88,2.43-4.032,5.027t-4.143,4.745a32.207,32.207,0,0,1-3.756,3.535,5.253,5.253,0,0,1-2.872,1.379,3.069,3.069,0,0,1-2.044-.608,3.457,3.457,0,0,1-1.049-1.6,7.94,7.94,0,0,1-.387-2.153,13.472,13.472,0,0,1,.055-2.154q0.332-1.658.553-2.76c0.146-.735.276-1.382,0.386-1.933s0.221-1.1.332-1.656,0.238-1.159.386-1.823q1.1-5.079,1.768-8.282T253.21,50.8a17.9,17.9,0,0,0,.332-2.6,2.543,2.543,0,0,0-.111-0.938,2.34,2.34,0,0,0-.884-0.111c-0.369,0-.9.039-1.6,0.111a25.805,25.805,0,0,0-2.6.441q2.32-3.532,1.823-5.687a5.285,5.285,0,0,0-2.043-3.257,13.444,13.444,0,0,0-4.861-1.767q-2.542-.221-6.407,1.767a32.666,32.666,0,0,0-7.843,5.909,49.008,49.008,0,0,0-7.347,9.441,40.923,40.923,0,0,0-4.916,12.258,26.488,26.488,0,0,0-.883,8.557,15.415,15.415,0,0,0,1.546,5.853,8.228,8.228,0,0,0,2.983,3.314,6.559,6.559,0,0,0,3.314,1.049,23.858,23.858,0,0,0,6.628-1.436,26.2,26.2,0,0,0,6.076-3.478,23.071,23.071,0,0,0,5.855-6.791,18.081,18.081,0,0,0,.386,4.969,19.206,19.206,0,0,0,1.05,3.2,5.817,5.817,0,0,0,1.657,2.208,6.543,6.543,0,0,0,2.32.938,10.189,10.189,0,0,0,2.817.164,13.211,13.211,0,0,0,2.927-.551,11.577,11.577,0,0,0,2.541-1.1,25.03,25.03,0,0,0,4.142-3.811q2.487-2.7,5.082-5.962t5.026-6.516q2.429-3.254,3.977-5.466A8.289,8.289,0,0,0,275.8,58.414Zm-34.908,9.718a27.443,27.443,0,0,1-2.1,2.65,26.013,26.013,0,0,1-2.872,2.761,18.284,18.284,0,0,1-3.2,2.153,7.427,7.427,0,0,1-3.148.884,3.612,3.612,0,0,1-2.762-1.16,4.9,4.9,0,0,1-.884-2.818,21.5,21.5,0,0,1,.166-5.024,38.724,38.724,0,0,1,1.381-6.127,29.422,29.422,0,0,1,2.651-6.129q3.976-6.958,7.015-9.553t4.253-1.6a2.631,2.631,0,0,1,.442,1.215,6.353,6.353,0,0,1-.055,1.822,10.135,10.135,0,0,1-1.05,2.925,15.07,15.07,0,0,1,1.767-.331,5.794,5.794,0,0,0,1.437-.331,10.139,10.139,0,0,1,1.215-.331c0.293-.073.349,0.5,0.166,1.71s-0.461,2.743-.829,4.583-0.811,3.756-1.325,5.743-0.959,3.717-1.326,5.191A5.928,5.928,0,0,1,240.893,68.132Zm63.851,16.619a32.629,32.629,0,0,0,5.468-3.864,51.725,51.725,0,0,0,5.3-5.3q2.541-2.925,4.751-5.8t3.811-5.411q1.6-2.54,2.375-4.087a6.934,6.934,0,0,0,.884-2.927,1.715,1.715,0,0,0-.5-1.489,1.361,1.361,0,0,0-1.381.112,5.577,5.577,0,0,0-1.878,1.877q-1.437,2.208-4.2,5.8t-5.855,7.012a52.869,52.869,0,0,1-6.131,5.854q-3.039,2.428-5.026,2.429a1.852,1.852,0,0,1-2.155-1.768,12,12,0,0,1,.5-4.2q1.214-3.753,2.043-6.9t1.381-5.468l1.215-4.858a20.033,20.033,0,0,0,.829-6.516,14.907,14.907,0,0,0-1.105-5.132,8.064,8.064,0,0,0-2.6-3.37,6.2,6.2,0,0,0-3.756-1.213,12.415,12.415,0,0,0-4.971,1.048,21.5,21.5,0,0,0-4.584,2.705,28.975,28.975,0,0,0-3.977,3.7,50.508,50.508,0,0,0-3.259,4.032q0.663-1.875,1.1-3.646,0.44-1.543.883-2.926c0.294-.917.553-1.637,0.774-2.151a4.524,4.524,0,0,0-1.491-.828,9.257,9.257,0,0,0-1.6-.388,14.82,14.82,0,0,0-1.768-.11,7.688,7.688,0,0,0-1.878.442,9.706,9.706,0,0,0-1.712.607,7.071,7.071,0,0,0-1.6,1.049q-1.106,4.2-1.933,7.731t-1.381,6.182q-0.663,3.093-1.215,5.632-0.774,3.2-1.657,6.734t-1.712,6.683q-0.829,3.144-1.436,5.465t-0.719,2.981q-0.219,1,1.16.994a10.056,10.056,0,0,0,3.259-.662,17.505,17.505,0,0,0,3.535-1.713,4.285,4.285,0,0,0,1.989-2.153q0.332-1.548.773-3.258t0.939-3.975q0.5-2.26,1.16-5.081t1.657-6.567q1.876-2.761,3.811-5.356a45.444,45.444,0,0,1,3.867-4.583,20.258,20.258,0,0,1,3.811-3.148,6.935,6.935,0,0,1,3.645-1.158,1.865,1.865,0,0,1,1.878,1.6,11.785,11.785,0,0,1,.221,4.086,39.547,39.547,0,0,1-.939,5.522q-0.72,3.039-1.546,6.073t-1.6,5.632q-0.775,2.595-1.105,4.141a11.063,11.063,0,0,0-.221,4.362,8.377,8.377,0,0,0,1.436,3.589,8.049,8.049,0,0,0,2.928,2.486,9.427,9.427,0,0,0,4.363.938A10.689,10.689,0,0,0,304.744,84.751Zm56.229-34.011q3.147-6.126,5.578-12.256a101.805,101.805,0,0,0,3.922-11.871,51.877,51.877,0,0,0,1.712-10.6,44.192,44.192,0,0,0,0-6.294,9.842,9.842,0,0,0-.828-3.481A2.672,2.672,0,0,0,369.865,4.8a6.678,6.678,0,0,0-1.988-.277A5.9,5.9,0,0,0,366,4.86a11.475,11.475,0,0,0-1.878.661,9.779,9.779,0,0,0-2.1,1.323Q360.254,12.7,358.818,18t-2.54,9.387q-1.218,4.744-2.32,8.832-0.663,2.762-1.326,5.853t-1.436,6.3a20.1,20.1,0,0,0-1.049-3.314,15.059,15.059,0,0,0-1.823-3.259,9.275,9.275,0,0,0-2.651-2.427,6.485,6.485,0,0,0-3.425-.938,16.8,16.8,0,0,0-8.561,2.484,27.329,27.329,0,0,0-7.623,6.737,37.8,37.8,0,0,0-5.578,9.992,39.274,39.274,0,0,0-2.541,12.148,20.132,20.132,0,0,0,.663,6.956,14.268,14.268,0,0,0,2.264,4.639,8.159,8.159,0,0,0,3.149,2.54,8.32,8.32,0,0,0,3.314.773,16.673,16.673,0,0,0,9-3.037,46.95,46.95,0,0,0,9.335-8.226c-0.149,1.252-.259,2.134-0.332,2.651a9.022,9.022,0,0,0,.5,3.532,11.094,11.094,0,0,0,1.712,3.2,9.849,9.849,0,0,0,2.486,2.32,5.347,5.347,0,0,0,2.928.884,10.213,10.213,0,0,0,4.695-1.382,37.233,37.233,0,0,0,5.412-3.589,58.065,58.065,0,0,0,5.634-5.078q2.817-2.87,5.358-5.854t4.64-5.8q2.1-2.814,3.424-4.913a4.287,4.287,0,0,0,.884-2.208,1.434,1.434,0,0,0-.442-1.213,1.489,1.489,0,0,0-1.16-.223,2.518,2.518,0,0,0-1.38.774q-0.555.551-2.044,2.428t-3.646,4.362q-2.154,2.485-4.695,5.248t-5.081,5.076a44.052,44.052,0,0,1-4.806,3.865,7.26,7.26,0,0,1-3.811,1.549,3.247,3.247,0,0,1-2.43-1.215,5.488,5.488,0,0,1-.994-3.975q0.108-1.879.607-4.97t1.05-6.516A123.761,123.761,0,0,0,360.973,50.739Zm-16.46,16.952a60.912,60.912,0,0,1-4.2,4.526,30.534,30.534,0,0,1-4.64,3.756,8.159,8.159,0,0,1-4.363,1.543,4.8,4.8,0,0,1-4.2-2.318q-1.548-2.32-1.326-7.62a27.274,27.274,0,0,1,1.768-7.508,42.439,42.439,0,0,1,3.866-7.9,34.177,34.177,0,0,1,4.971-6.293q2.652-2.6,5.192-2.6a3.212,3.212,0,0,1,2.762,1.381,9.874,9.874,0,0,1,1.491,3.2,17.845,17.845,0,0,1,.608,3.533c0.072,1.144.11,1.933,0.11,2.374A3.318,3.318,0,0,0,347,55.707q0.441,0.61,1.657.056a3.518,3.518,0,0,0,.387-0.22,3.734,3.734,0,0,1,.387-0.221q-0.555,2.209-.94,4.306t-0.828,4.2Q346.445,65.373,344.513,67.691Z"/>
</svg>
