<svg xmlns="http://www.w3.org/2000/svg" width="148.25" height="140" viewBox="0 0 148.25 140">
  <defs>
    <style>
      .cls-1 {
        fill: #343e5c;
        fill-rule: evenodd;
      }
    </style>
  </defs>
  <path id="Shopping_Cart_Icon" data-name="Shopping Cart Icon" class="cls-1" d="M148.231,34.373L140,58.98c-3.052,6.9-7.374,16.4-16.47,16.4H44.142l0.97,8.2H148.231L140,99.982H35.839l-5.3.62L20.767,17.975H8.234A8.219,8.219,0,0,1,0,9.781c0-4.536,2.9-8.717,7.45-8.717l27.888-.11,2.094,17.708a9.845,9.845,0,0,1,3.743-.686H140C149.092,17.975,148.231,25.315,148.231,34.373ZM49.41,108.182A16.4,16.4,0,1,1,32.94,124.589,16.433,16.433,0,0,1,49.41,108.182Zm65.88,0a16.4,16.4,0,1,1-16.47,16.407A16.432,16.432,0,0,1,115.29,108.182Z" transform="translate(0 -0.969)"/>
</svg>
